<svg id="Group_98" data-name="Group 98" xmlns="http://www.w3.org/2000/svg" xmlns:xlink="http://www.w3.org/1999/xlink" width="255" height="71" viewBox="0 0 255 71">
  <defs>
    <clipPath id="clip-path">
      <rect id="Rectangle_32" data-name="Rectangle 32" width="255" height="71" fill="none"/>
    </clipPath>
  </defs>
  <rect id="Rectangle_29" data-name="Rectangle 29" width="255" height="71" fill="#fff"/>
  <rect id="Rectangle_30" data-name="Rectangle 30" width="93.483" height="63.499" transform="translate(5.16 3.751)" fill="#fff"/>
  <rect id="Rectangle_31" data-name="Rectangle 31" width="89.887" height="59.926" transform="translate(6.958 5.491)" fill="#039"/>
  <path id="Path_21" data-name="Path 21" d="M50.157,19.4l1.885-1.376L53.926,19.4l-.717-2.224,1.914-1.374h-2.36l-.721-2.252-.724,2.254-2.356,0,1.912,1.374Z" fill="#fc0"/>
  <path id="Path_22" data-name="Path 22" d="M40.407,22.022l1.885-1.376,1.882,1.376L43.459,19.8l1.912-1.374h-2.36l-.722-2.254-.721,2.256-2.358,0L41.122,19.8Z" fill="#fc0"/>
  <path id="Path_23" data-name="Path 23" d="M35.157,23.321l-.721,2.256-2.358,0,1.912,1.373-.718,2.225L35.157,27.8l1.885,1.376-.718-2.225,1.912-1.373H35.878Z" fill="#fc0"/>
  <path id="Path_24" data-name="Path 24" d="M32.54,37.536l1.882,1.376-.715-2.224,1.912-1.376H33.261L32.54,33.06l-.721,2.258-2.36-.006,1.914,1.376-.718,2.224Z" fill="#fc0"/>
  <path id="Path_25" data-name="Path 25" d="M35.879,45.079l-.721-2.254-.724,2.256-2.357,0,1.913,1.376-.717,2.222L35.158,47.3l1.882,1.378-.715-2.222,1.912-1.376Z" fill="#fc0"/>
  <path id="Path_26" data-name="Path 26" d="M43.027,52.227l-.721-2.251-.722,2.253-2.359,0L41.137,53.6l-.715,2.222,1.883-1.374,1.882,1.374L43.472,53.6l1.914-1.376Z" fill="#fc0"/>
  <path id="Path_27" data-name="Path 27" d="M52.764,54.817l-.721-2.254-.722,2.256-2.359,0,1.913,1.376-.715,2.222,1.883-1.374,1.882,1.374-.715-2.222,1.914-1.376Z" fill="#fc0"/>
  <path id="Path_28" data-name="Path 28" d="M62.5,52.227l-.721-2.251-.724,2.253-2.355,0L60.613,53.6,59.9,55.825l1.883-1.374,1.884,1.374L62.948,53.6l1.914-1.376Z" fill="#fc0"/>
  <path id="Path_29" data-name="Path 29" d="M69.652,45.079l-.723-2.254-.724,2.256-2.355,0,1.913,1.376-.719,2.222L68.929,47.3l1.884,1.378-.719-2.222,1.914-1.376Z" fill="#fc0"/>
  <path id="Path_30" data-name="Path 30" d="M74.6,35.285h-2.36l-.721-2.254L70.8,35.287l-2.36,0,1.913,1.376-.715,2.222,1.883-1.378L73.4,38.883l-.715-2.222Z" fill="#fc0"/>
  <path id="Path_31" data-name="Path 31" d="M67.045,29.143l1.885-1.376,1.884,1.376L70.1,26.919l1.914-1.372H69.653l-.723-2.254-.724,2.256-2.356,0,1.914,1.372Z" fill="#fc0"/>
  <path id="Path_32" data-name="Path 32" d="M61.808,16.173l-.721,2.256-2.358,0L60.641,19.8l-.718,2.225,1.887-1.378,1.883,1.378L62.975,19.8l1.914-1.376h-2.36Z" fill="#fc0"/>
  <g id="Group_97" data-name="Group 97">
    <g id="Group_96" data-name="Group 96" clip-path="url(#clip-path)">
      <path id="Path_33" data-name="Path 33" d="M103.837,54.013a6.476,6.476,0,0,1,1.175-.1,1.835,1.835,0,0,1,1.33.433,1.466,1.466,0,0,1,.414,1.088,1.617,1.617,0,0,1-.366,1.112,1.866,1.866,0,0,1-1.448.572,1.911,1.911,0,0,1-.493-.047v2.085h-.612Zm.612,2.509a1.864,1.864,0,0,0,.506.054,1.051,1.051,0,0,0,1.189-1.112c0-.687-.443-1.019-1.118-1.019a2.343,2.343,0,0,0-.577.054Z" fill="#6d6d6d"/>
      <path id="Path_34" data-name="Path 34" d="M107.325,56.583c0-.44-.007-.818-.028-1.166h.541l.022.734h.027a1.043,1.043,0,0,1,.943-.818.628.628,0,0,1,.176.022V56a.822.822,0,0,0-.211-.024c-.436,0-.745.363-.83.873a2.085,2.085,0,0,0-.028.316v1.992h-.612Z" fill="#6d6d6d"/>
      <path id="Path_35" data-name="Path 35" d="M112.515,57.255a1.754,1.754,0,0,1-1.695,1.985,1.712,1.712,0,0,1-1.632-1.923,1.756,1.756,0,0,1,1.688-1.984,1.706,1.706,0,0,1,1.639,1.922m-2.7.039c0,.818.429,1.436,1.034,1.436s1.034-.61,1.034-1.451c0-.633-.289-1.437-1.02-1.437s-1.048.742-1.048,1.452" fill="#6d6d6d"/>
      <path id="Path_36" data-name="Path 36" d="M112.345,60.235a.958.958,0,0,0,.676-.285c.168-.217.232-.51.232-1.406V55.417h.619v3.389a2.184,2.184,0,0,1-.409,1.537,1.489,1.489,0,0,1-1.055.425Zm1.6-5.868a.383.383,0,0,1-.387.417.39.39,0,0,1-.38-.417.4.4,0,0,1,.394-.424.386.386,0,0,1,.373.424" fill="#6d6d6d"/>
      <path id="Path_37" data-name="Path 37" d="M115.11,57.409c.013.919.548,1.3,1.167,1.3a2.066,2.066,0,0,0,.942-.193l.106.486a2.547,2.547,0,0,1-1.132.232,1.668,1.668,0,0,1-1.675-1.884c0-1.128.605-2.015,1.6-2.015,1.112,0,1.407,1.073,1.407,1.76a2.8,2.8,0,0,1-.021.316Zm1.814-.486c.007-.432-.162-1.1-.858-1.1-.626,0-.9.633-.95,1.1Z" fill="#6d6d6d"/>
      <path id="Path_38" data-name="Path 38" d="M120.6,59.015a2.109,2.109,0,0,1-.978.216,1.7,1.7,0,0,1-1.695-1.907,1.819,1.819,0,0,1,1.829-1.984,1.913,1.913,0,0,1,.858.193l-.141.525a1.326,1.326,0,0,0-.717-.177,1.248,1.248,0,0,0-1.2,1.412,1.235,1.235,0,0,0,1.182,1.4,1.635,1.635,0,0,0,.76-.185Z" fill="#6d6d6d"/>
      <path id="Path_39" data-name="Path 39" d="M122.035,54.344v1.073h.886v.517h-.886v2.015c0,.464.12.727.464.727a1.261,1.261,0,0,0,.359-.047l.028.509a1.376,1.376,0,0,1-.549.093.821.821,0,0,1-.668-.285,1.483,1.483,0,0,1-.239-.973V55.934H120.9v-.517h.528v-.9Z" fill="#6d6d6d"/>
      <path id="Path_40" data-name="Path 40" d="M124.932,59.155v-3.22h-.478v-.517h.478V55.24a1.865,1.865,0,0,1,.394-1.3,1.128,1.128,0,0,1,.83-.348,1.3,1.3,0,0,1,.527.109l-.084.524a.856.856,0,0,0-.394-.086c-.527,0-.661.511-.661,1.082v.2h.823v.517h-.823v3.22Z" fill="#6d6d6d"/>
      <path id="Path_41" data-name="Path 41" d="M129.651,58.135c0,.386.007.726.028,1.019h-.549l-.035-.61h-.014a1.267,1.267,0,0,1-1.125.695c-.535,0-1.175-.324-1.175-1.637V55.417h.619v2.069c0,.711.2,1.19.76,1.19a.9.9,0,0,0,.816-.618,1.089,1.089,0,0,0,.056-.348V55.417h.619Z" fill="#6d6d6d"/>
      <path id="Path_42" data-name="Path 42" d="M130.557,56.429c0-.386-.007-.7-.028-1.011h.549l.035.617h.014a1.238,1.238,0,0,1,1.125-.7c.472,0,1.2.308,1.2,1.59v2.232h-.619V57c0-.6-.2-1.1-.788-1.1a.9.9,0,0,0-.83.695,1.073,1.073,0,0,0-.042.317v2.247h-.619Z" fill="#6d6d6d"/>
      <path id="Path_43" data-name="Path 43" d="M137.281,53.673v4.516c0,.333.007.711.028.966h-.556l-.028-.649h-.014a1.248,1.248,0,0,1-1.16.734c-.824,0-1.457-.765-1.457-1.9-.007-1.243.7-2.007,1.527-2.007a1.117,1.117,0,0,1,1.027.571h.014V53.673Zm-.619,3.266a1.321,1.321,0,0,0-.028-.286.936.936,0,0,0-.893-.787c-.641,0-1.02.617-1.02,1.444,0,.756.337,1.381,1.005,1.381a.954.954,0,0,0,.908-.81,1.305,1.305,0,0,0,.028-.294Z" fill="#6d6d6d"/>
      <path id="Path_44" data-name="Path 44" d="M138.532,57.409c.013.919.548,1.3,1.167,1.3a2.066,2.066,0,0,0,.942-.193l.106.486a2.547,2.547,0,0,1-1.132.232,1.668,1.668,0,0,1-1.675-1.884c0-1.128.6-2.015,1.6-2.015,1.112,0,1.407,1.073,1.407,1.76a2.8,2.8,0,0,1-.021.316Zm1.814-.486c.007-.432-.162-1.1-.858-1.1-.626,0-.9.633-.95,1.1Z" fill="#6d6d6d"/>
      <path id="Path_45" data-name="Path 45" d="M144.53,53.673v4.516c0,.333.007.711.028.966H144l-.028-.649h-.014a1.248,1.248,0,0,1-1.16.734c-.824,0-1.457-.765-1.457-1.9-.007-1.243.7-2.007,1.527-2.007a1.117,1.117,0,0,1,1.027.571h.014V53.673Zm-.619,3.266a1.32,1.32,0,0,0-.028-.286.936.936,0,0,0-.894-.787c-.64,0-1.019.617-1.019,1.444,0,.756.337,1.381,1.005,1.381a.954.954,0,0,0,.908-.81,1.3,1.3,0,0,0,.028-.294Z" fill="#6d6d6d"/>
      <path id="Path_46" data-name="Path 46" d="M146.779,59.154c.014-.255.028-.633.028-.965V53.672h.612v2.347h.014a1.247,1.247,0,0,1,1.161-.687c.844,0,1.442.772,1.435,1.907,0,1.336-.767,2-1.527,2a1.194,1.194,0,0,1-1.139-.7h-.021l-.028.618Zm.64-1.5a1.392,1.392,0,0,0,.028.247.976.976,0,0,0,.929.8c.647,0,1.034-.579,1.034-1.436,0-.749-.352-1.389-1.013-1.389a1.011,1.011,0,0,0-.943.833,1.48,1.48,0,0,0-.035.279Z" fill="#6d6d6d"/>
      <path id="Path_47" data-name="Path 47" d="M150.864,55.418l.746,2.208c.077.247.161.541.217.765h.015c.063-.224.133-.51.218-.78l.675-2.193h.654l-.928,2.664a5.859,5.859,0,0,1-1.168,2.339,1.634,1.634,0,0,1-.76.44l-.154-.571a1.621,1.621,0,0,0,.541-.332,2.059,2.059,0,0,0,.521-.757.517.517,0,0,0,.049-.162.625.625,0,0,0-.043-.178l-1.258-3.443Z" fill="#6d6d6d"/>
      <path id="Path_48" data-name="Path 48" d="M155.948,54.344v1.073h.886v.517h-.886v2.015c0,.464.12.727.464.727a1.261,1.261,0,0,0,.359-.047l.028.509a1.376,1.376,0,0,1-.549.093.821.821,0,0,1-.668-.285,1.483,1.483,0,0,1-.239-.973V55.934h-.528v-.517h.528v-.9Z" fill="#6d6d6d"/>
      <path id="Path_49" data-name="Path 49" d="M157.411,53.673h.619v2.332h.014a1.207,1.207,0,0,1,.443-.479,1.189,1.189,0,0,1,.633-.193c.458,0,1.189.309,1.189,1.6v2.224h-.619V57.008c0-.6-.2-1.111-.788-1.111a.969.969,0,0,0-.872,1v2.254h-.619Z" fill="#6d6d6d"/>
      <path id="Path_50" data-name="Path 50" d="M161.539,57.409c.013.919.548,1.3,1.167,1.3a2.066,2.066,0,0,0,.942-.193l.106.486a2.547,2.547,0,0,1-1.132.232,1.668,1.668,0,0,1-1.675-1.884c0-1.128.6-2.015,1.6-2.015,1.112,0,1.407,1.073,1.407,1.76a2.8,2.8,0,0,1-.021.316Zm1.814-.486c.007-.432-.162-1.1-.858-1.1-.626,0-.9.633-.95,1.1Z" fill="#6d6d6d"/>
      <path id="Path_51" data-name="Path 51" d="M168.444,56.715H166.6V58.59h2.054v.564h-2.666v-5.2h2.56v.564H166.6v1.644h1.843Z" fill="#6d6d6d"/>
      <path id="Path_52" data-name="Path 52" d="M172.107,58.135c0,.386.007.726.028,1.019h-.549l-.035-.61h-.014a1.267,1.267,0,0,1-1.125.695c-.535,0-1.175-.324-1.175-1.637V55.417h.619v2.069c0,.711.2,1.19.76,1.19a.9.9,0,0,0,.816-.618,1.09,1.09,0,0,0,.056-.348V55.417h.619Z" fill="#6d6d6d"/>
      <path id="Path_53" data-name="Path 53" d="M173.013,56.583c0-.44-.007-.818-.028-1.166h.541l.022.734h.027a1.043,1.043,0,0,1,.943-.818.628.628,0,0,1,.176.022V56a.822.822,0,0,0-.211-.024c-.436,0-.746.363-.83.873a2.086,2.086,0,0,0-.028.316v1.992h-.612Z" fill="#6d6d6d"/>
      <path id="Path_54" data-name="Path 54" d="M178.2,57.255a1.754,1.754,0,0,1-1.695,1.985,1.712,1.712,0,0,1-1.632-1.923,1.756,1.756,0,0,1,1.688-1.984,1.706,1.706,0,0,1,1.639,1.922m-2.7.039c0,.818.429,1.436,1.034,1.436s1.034-.61,1.034-1.451c0-.633-.289-1.437-1.02-1.437s-1.048.742-1.048,1.452" fill="#6d6d6d"/>
      <path id="Path_55" data-name="Path 55" d="M178.864,56.638c0-.479-.014-.865-.028-1.22h.556l.028.641h.014a1.316,1.316,0,0,1,1.209-.726c.824,0,1.443.764,1.443,1.9,0,1.343-.746,2.007-1.548,2.007a1.166,1.166,0,0,1-1.048-.587h-.014v2.031h-.612Zm.612,1a1.688,1.688,0,0,0,.028.278.977.977,0,0,0,.929.8c.654,0,1.034-.587,1.034-1.444,0-.749-.359-1.389-1.013-1.389a1.015,1.015,0,0,0-.936.841,1.211,1.211,0,0,0-.042.278Z" fill="#6d6d6d"/>
      <path id="Path_56" data-name="Path 56" d="M183.09,57.409c.013.919.548,1.3,1.167,1.3a2.066,2.066,0,0,0,.942-.193L185.3,59a2.547,2.547,0,0,1-1.132.232,1.668,1.668,0,0,1-1.675-1.884c0-1.128.6-2.015,1.6-2.015,1.112,0,1.407,1.073,1.407,1.76a2.8,2.8,0,0,1-.021.316Zm1.814-.486c.007-.432-.162-1.1-.858-1.1-.626,0-.9.633-.95,1.1Z" fill="#6d6d6d"/>
      <path id="Path_57" data-name="Path 57" d="M188.034,59.154l-.05-.471h-.021a1.235,1.235,0,0,1-1.041.556,1.018,1.018,0,0,1-1.041-1.073c0-.9.731-1.4,2.047-1.39V56.7c0-.309-.077-.865-.774-.865a1.586,1.586,0,0,0-.886.278l-.141-.448a1.983,1.983,0,0,1,1.119-.332c1.041,0,1.294.78,1.294,1.529v1.4a5.791,5.791,0,0,0,.056.9Zm-.092-1.907c-.675-.015-1.442.116-1.442.842a.575.575,0,0,0,.584.648.856.856,0,0,0,.823-.625.78.78,0,0,0,.035-.216Z" fill="#6d6d6d"/>
      <path id="Path_58" data-name="Path 58" d="M189.418,56.429c0-.386-.007-.7-.028-1.011h.549l.035.617h.014a1.238,1.238,0,0,1,1.125-.7c.472,0,1.2.308,1.2,1.59v2.232H191.7V57c0-.6-.2-1.1-.788-1.1a.9.9,0,0,0-.83.695,1.073,1.073,0,0,0-.042.317v2.247h-.619Z" fill="#6d6d6d"/>
      <path id="Path_59" data-name="Path 59" d="M195.205,53.95v3.081c0,1.166.471,1.66,1.1,1.66.7,0,1.154-.51,1.154-1.66V53.95h.619v3.035c0,1.6-.767,2.254-1.794,2.254-.97,0-1.7-.61-1.7-2.224V53.95Z" fill="#6d6d6d"/>
      <path id="Path_60" data-name="Path 60" d="M199,56.429c0-.386-.007-.7-.028-1.011h.549l.035.617h.014a1.238,1.238,0,0,1,1.125-.7c.472,0,1.2.308,1.2,1.59v2.232h-.619V57c0-.6-.2-1.1-.788-1.1a.9.9,0,0,0-.83.695,1.073,1.073,0,0,0-.042.317v2.247H199Z" fill="#6d6d6d"/>
      <path id="Path_61" data-name="Path 61" d="M203.474,54.367a.384.384,0,0,1-.394.417.388.388,0,0,1-.373-.417.4.4,0,0,1,.387-.424.387.387,0,0,1,.38.424m-.689,1.051h.619v3.737h-.619Z" fill="#6d6d6d"/>
      <path id="Path_62" data-name="Path 62" d="M207.391,57.255A1.753,1.753,0,0,1,205.7,59.24a1.713,1.713,0,0,1-1.633-1.923,1.757,1.757,0,0,1,1.689-1.984,1.706,1.706,0,0,1,1.638,1.922m-2.7.039c0,.818.428,1.436,1.034,1.436.591,0,1.033-.61,1.033-1.451,0-.633-.289-1.437-1.02-1.437s-1.047.742-1.047,1.452" fill="#6d6d6d"/>
      <path id="Path_63" data-name="Path 63" d="M208.051,56.429c0-.386-.007-.7-.028-1.011h.549l.035.617h.014a1.238,1.238,0,0,1,1.125-.7c.472,0,1.2.308,1.2,1.59v2.232h-.619V57c0-.6-.2-1.1-.788-1.1a.9.9,0,0,0-.83.695,1.073,1.073,0,0,0-.042.317v2.247h-.619Z" fill="#6d6d6d"/>
      <path id="Path_64" data-name="Path 64" d="M109.859,22.516a4.4,4.4,0,0,1-.219,1.422,3.19,3.19,0,0,1-.627,1.108,2.762,2.762,0,0,1-1,.719,3.4,3.4,0,0,1-1.357.257,3.645,3.645,0,0,1-1.389-.253,3.342,3.342,0,0,1-1.056-.669,2.921,2.921,0,0,1-.669-.959,2.783,2.783,0,0,1-.235-1.129c0-.132,0-.3.016-.5a3.123,3.123,0,0,1,.213-1.132h1.19a2.242,2.242,0,0,0-.169.735,4.666,4.666,0,0,0-.028.5V23a1.987,1.987,0,0,0,.159.818,1.617,1.617,0,0,0,.441.591,1.912,1.912,0,0,0,.67.356,2.934,2.934,0,0,0,.857.12,1.693,1.693,0,0,0,.814-.186,1.672,1.672,0,0,0,.575-.509,2.247,2.247,0,0,0,.342-.761,3.789,3.789,0,0,0,.111-.934V17.233a4.606,4.606,0,0,0-.115-1.116,1.872,1.872,0,0,0-.341-.732,1.3,1.3,0,0,0-.56-.4,2.167,2.167,0,0,0-.762-.124,1.564,1.564,0,0,0-.671.14,1.447,1.447,0,0,0-.5.393,1.735,1.735,0,0,0-.313.612,2.739,2.739,0,0,0-.108.79,2.858,2.858,0,0,0,.036.5,1.214,1.214,0,0,0,.131.368,1.779,1.779,0,0,0,.262.343c.111.115.252.256.421.421L105.6,19.49c-.343-.2-.632-.389-.864-.554a2.5,2.5,0,0,1-.568-.542,1.852,1.852,0,0,1-.313-.678,4.008,4.008,0,0,1-.1-.954,3.324,3.324,0,0,1,.2-1.15,3.054,3.054,0,0,1,.584-.984,2.82,2.82,0,0,1,.928-.686,2.882,2.882,0,0,1,1.238-.256,2.916,2.916,0,0,1,2.322.9,3.989,3.989,0,0,1,.8,2.65Z" fill="#039"/>
      <path id="Path_65" data-name="Path 65" d="M117.749,23.1a2.976,2.976,0,0,1-.234,1.2,2.7,2.7,0,0,1-.655.922,2.946,2.946,0,0,1-1.016.595,3.912,3.912,0,0,1-1.317.211,3.394,3.394,0,0,1-1.409-.277,3.246,3.246,0,0,1-1.041-.728,3.091,3.091,0,0,1-.642-1.017,3.171,3.171,0,0,1-.219-1.153,3.542,3.542,0,0,1,.14-.93c.049-.181.189-.553.189-.553l1.158,0a2.972,2.972,0,0,0-.2.665,4.655,4.655,0,0,0-.067.806,2.012,2.012,0,0,0,.143.731,2.039,2.039,0,0,0,1.059,1.129,2.02,2.02,0,0,0,.869.182,2.938,2.938,0,0,0,.8-.1,1.394,1.394,0,0,0,.587-.323,1.409,1.409,0,0,0,.362-.574,2.639,2.639,0,0,0,.123-.856l-.032-.918a6.215,6.215,0,0,0-.1-.9,1.831,1.831,0,0,0-.245-.653,1.08,1.08,0,0,0-.449-.4,1.644,1.644,0,0,0-.706-.132h-.7v-.968h.721a1.115,1.115,0,0,0,.58-.161,1.541,1.541,0,0,0,.473-.451,2.4,2.4,0,0,0,.321-.678,2.9,2.9,0,0,0,.119-.851q0-2.067-1.675-2.067a2.031,2.031,0,0,0-.706.116,1.446,1.446,0,0,0-.544.343,1.557,1.557,0,0,0-.349.558,2.148,2.148,0,0,0-.124.76,1.565,1.565,0,0,0,.108.492,3.24,3.24,0,0,0,.337.658l-.857.62a2.751,2.751,0,0,1-.686-.852,1.978,1.978,0,0,1-.227-.893,3.266,3.266,0,0,1,.21-1.174,2.727,2.727,0,0,1,.6-.942,2.759,2.759,0,0,1,.949-.625,3.659,3.659,0,0,1,2.551.005,2.664,2.664,0,0,1,.965.653,2.867,2.867,0,0,1,.6,1.017,3.955,3.955,0,0,1,.21,1.331,2.487,2.487,0,0,1-.129.827,2.578,2.578,0,0,1-.362.682,3.331,3.331,0,0,1-.54.57,7.01,7.01,0,0,1-.659.492,1.961,1.961,0,0,1,1.223.9,3.614,3.614,0,0,1,.467,1.7Z" fill="#039"/>
      <path id="Path_66" data-name="Path 66" d="M130.52,17.96a6.694,6.694,0,0,1-.188,1.649,3.664,3.664,0,0,1-1.622,2.262,5.7,5.7,0,0,1-1.509.661v-1.2a2.527,2.527,0,0,0,1.488-1.182,4.6,4.6,0,0,0,.449-2.191,8.582,8.582,0,0,0-.06-1.038,2.7,2.7,0,0,0-.246-.872,1.48,1.48,0,0,0-.528-.6,1.624,1.624,0,0,0-.9-.224,2.2,2.2,0,0,0-.809.133,1.222,1.222,0,0,0-.545.421,1.99,1.99,0,0,0-.309.749,5.322,5.322,0,0,0-.1,1.12V19.06h-1.253l-.1-1.414a10.862,10.862,0,0,0-.06-1.087,1.962,1.962,0,0,0-.222-.757,1.018,1.018,0,0,0-.509-.438,2.4,2.4,0,0,0-.908-.141,2.085,2.085,0,0,0-.977.2,1.32,1.32,0,0,0-.558.554,2.372,2.372,0,0,0-.254.864,9.348,9.348,0,0,0-.061,1.124,4.157,4.157,0,0,0,.5,2.137,2.914,2.914,0,0,0,1.544,1.236V22.54a6.042,6.042,0,0,1-1.52-.706,4.114,4.114,0,0,1-1.051-.993,3.864,3.864,0,0,1-.606-1.285,6.057,6.057,0,0,1-.2-1.6,6.93,6.93,0,0,1,.215-1.8,5.874,5.874,0,0,1,.583-1.435,5.686,5.686,0,0,1,.861-1.137,8.642,8.642,0,0,1,1.043-.9,12.1,12.1,0,0,1,1.14-.732c.391-.22.773-.429,1.142-.628s.723-.393,1.056-.583a5.462,5.462,0,0,0,.873-.607l.54.942q-.6.379-1.04.628t-.766.426c-.22.119-.415.218-.587.3s-.344.157-.516.231l-.544.236c-.19.083-.412.187-.665.314a3.267,3.267,0,0,0-.37.215,6.234,6.234,0,0,0-.528.381,4.13,4.13,0,0,0-.48.442.641.641,0,0,0-.21.409l.071.066c.068-.071.146-.147.234-.227a1.794,1.794,0,0,1,.674-.385,1.579,1.579,0,0,1,.472-.066,2.869,2.869,0,0,1,.843.112,2.084,2.084,0,0,1,1.15.847,4.2,4.2,0,0,1,.389.72,3.358,3.358,0,0,1,.366-.691,2.214,2.214,0,0,1,1.177-.868,2.819,2.819,0,0,1,.854-.12,3.342,3.342,0,0,1,1.48.294,2.525,2.525,0,0,1,.969.814,3.42,3.42,0,0,1,.528,1.236,7.286,7.286,0,0,1,.159,1.567" fill="#039"/>
      <path id="Path_67" data-name="Path 67" d="M143.266,17.911a6.877,6.877,0,0,1-.187,1.674,3.9,3.9,0,0,1-.59,1.311,3.747,3.747,0,0,1-1.032.975,5.737,5.737,0,0,1-1.509.662V21.26a2.267,2.267,0,0,0,1.488-1.113,4.721,4.721,0,0,0,.449-2.236,7.2,7.2,0,0,0-.1-1.286,3.2,3.2,0,0,0-.317-.959,1.572,1.572,0,0,0-.548-.6,1.489,1.489,0,0,0-.8-.207,1.455,1.455,0,0,0-1.361.711,4.227,4.227,0,0,0-.417,2.1V19.06h-1.254V17.671a4.021,4.021,0,0,0-.444-2.087,1.521,1.521,0,0,0-1.4-.724,1.45,1.45,0,0,0-.793.207,1.506,1.506,0,0,0-.528.6,3.188,3.188,0,0,0-.293.959,8,8,0,0,0-.092,1.286,5.526,5.526,0,0,0,.115,1.149,3.5,3.5,0,0,0,.357.972,2.79,2.79,0,0,0,.619.756,2.647,2.647,0,0,0,.9.5v1.257a5.722,5.722,0,0,1-1.535-.686,3.859,3.859,0,0,1-1.048-1,3.985,3.985,0,0,1-.6-1.314,6.55,6.55,0,0,1-.19-1.629,6.823,6.823,0,0,1,.215-1.794,3.962,3.962,0,0,1,.614-1.327,2.649,2.649,0,0,1,.98-.823,2.992,2.992,0,0,1,1.319-.281,2.923,2.923,0,0,1,.852.112,2.045,2.045,0,0,1,.656.33,2.22,2.22,0,0,1,.5.542,4.414,4.414,0,0,1,.389.736,4.5,4.5,0,0,1,.393-.728,2.243,2.243,0,0,1,.512-.541,2.177,2.177,0,0,1,.671-.335,2.9,2.9,0,0,1,.861-.116,2.7,2.7,0,0,1,1.393.347,3.033,3.033,0,0,1,.984.93,4.222,4.222,0,0,1,.584,1.348,6.646,6.646,0,0,1,.19,1.6" fill="#039"/>
      <path id="Path_68" data-name="Path 68" d="M151.062,22.814a3.845,3.845,0,0,1-.215,1.319,2.826,2.826,0,0,1-.622,1.013,2.787,2.787,0,0,1-1,.653,3.761,3.761,0,0,1-1.366.231,4.461,4.461,0,0,1-1.429-.211,2.781,2.781,0,0,1-1.055-.62,2.67,2.67,0,0,1-.655-1.017,4.02,4.02,0,0,1-.226-1.4,6.782,6.782,0,0,1,.329-1.405h1.155a3.3,3.3,0,0,0-.254,1.4,2.754,2.754,0,0,0,.151.963,1.727,1.727,0,0,0,.425.661,1.684,1.684,0,0,0,.663.385,2.848,2.848,0,0,0,.864.124,1.748,1.748,0,0,0,1.418-.529,2.4,2.4,0,0,0,.44-1.563v-.951a1.694,1.694,0,0,0-.139-.682,1.767,1.767,0,0,0-.377-.554,1.808,1.808,0,0,0-.548-.372,1.575,1.575,0,0,0-.642-.136H146.91V18.978h1.128a1.181,1.181,0,0,0,.619-.162,1.467,1.467,0,0,0,.456-.429,1.984,1.984,0,0,0,.282-.621,2.832,2.832,0,0,0,.1-.74,1.969,1.969,0,0,0-.261-1.079,1.694,1.694,0,0,0-.671-.6,2.749,2.749,0,0,0-.9-.261,8.453,8.453,0,0,0-.965-.057v-1.15a8.665,8.665,0,0,1,1.611.145,3.744,3.744,0,0,1,1.334.509,2.645,2.645,0,0,1,.909.979,3.22,3.22,0,0,1,.337,1.559,2.176,2.176,0,0,1-.158.8,3.4,3.4,0,0,1-.409.744,3.18,3.18,0,0,1-.56.595,1.971,1.971,0,0,1-.6.351,4.756,4.756,0,0,1,.647.364,3.676,3.676,0,0,1,.619.517,2.693,2.693,0,0,1,.464.653,1.665,1.665,0,0,1,.183.765Z" fill="#039"/>
      <path id="Path_69" data-name="Path 69" d="M159.189,18.614a5.653,5.653,0,0,1-.2,1.538,3.538,3.538,0,0,1-.6,1.215,2.739,2.739,0,0,1-1,.8,3.279,3.279,0,0,1-1.424.29,3.781,3.781,0,0,1-1.409-.248A2.889,2.889,0,0,1,153.5,21.5a3.083,3.083,0,0,1-.659-1.137,4.778,4.778,0,0,1-.226-1.517,1.918,1.918,0,0,1,.079-.509q.079-.285.187-.566c.071-.188.143-.363.214-.525s.128-.286.171-.368l1.135.628c-.042.088-.087.19-.136.306s-.091.234-.13.356a2.89,2.89,0,0,0-.095.359,1.6,1.6,0,0,0-.036.31,2.861,2.861,0,0,0,.5,1.832,1.789,1.789,0,0,0,1.472.607,1.589,1.589,0,0,0,1.394-.649,3.6,3.6,0,0,0,.456-2.038,3.132,3.132,0,0,0-.108-.81,3.1,3.1,0,0,0-.305-.752,2.543,2.543,0,0,0-.48-.608,1.838,1.838,0,0,0-.624-.385,5.1,5.1,0,0,1-.836-.372,2.858,2.858,0,0,1-.668-.5,2.19,2.19,0,0,1-.44-.653,2,2,0,0,1-.158-.81h1.34a1.715,1.715,0,0,0,.068.537.773.773,0,0,0,.211.331,1.206,1.206,0,0,0,.36.223c.145.061.319.129.52.207a3.14,3.14,0,0,1,.95.583,4.745,4.745,0,0,1,1.332,1.955,3.169,3.169,0,0,1,.2,1.083" fill="#039"/>
      <path id="Path_70" data-name="Path 70" d="M167.174,23.1a2.976,2.976,0,0,1-.234,1.2,2.7,2.7,0,0,1-.655.922,2.946,2.946,0,0,1-1.016.595,3.912,3.912,0,0,1-1.317.211,3.394,3.394,0,0,1-1.409-.277,3.245,3.245,0,0,1-1.041-.728,3.091,3.091,0,0,1-.642-1.017,3.171,3.171,0,0,1-.219-1.153,3.542,3.542,0,0,1,.14-.93c.051-.188.189-.549.189-.549h1.156a2.975,2.975,0,0,0-.2.665,4.655,4.655,0,0,0-.067.806,2.012,2.012,0,0,0,.143.731,2.039,2.039,0,0,0,1.059,1.129,2.02,2.02,0,0,0,.869.182,2.938,2.938,0,0,0,.8-.1,1.394,1.394,0,0,0,.587-.323,1.409,1.409,0,0,0,.362-.574,2.639,2.639,0,0,0,.123-.856l-.032-.918a6.369,6.369,0,0,0-.1-.9,1.85,1.85,0,0,0-.246-.653,1.08,1.08,0,0,0-.449-.4,1.644,1.644,0,0,0-.706-.132h-.7v-.968h.721a1.115,1.115,0,0,0,.58-.161,1.542,1.542,0,0,0,.473-.451,2.4,2.4,0,0,0,.321-.678,2.9,2.9,0,0,0,.119-.851q0-2.067-1.675-2.067a2.03,2.03,0,0,0-.706.116,1.446,1.446,0,0,0-.544.343,1.558,1.558,0,0,0-.349.558,2.148,2.148,0,0,0-.124.76,1.565,1.565,0,0,0,.108.492,3.24,3.24,0,0,0,.337.658l-.857.62a2.751,2.751,0,0,1-.686-.852,1.978,1.978,0,0,1-.227-.893,3.267,3.267,0,0,1,.21-1.174,2.727,2.727,0,0,1,.6-.942,2.759,2.759,0,0,1,.949-.625,3.659,3.659,0,0,1,2.551.005,2.665,2.665,0,0,1,.965.653,2.867,2.867,0,0,1,.6,1.017,3.955,3.955,0,0,1,.21,1.331,2.487,2.487,0,0,1-.129.827,2.578,2.578,0,0,1-.362.682,3.332,3.332,0,0,1-.54.57,7.013,7.013,0,0,1-.659.492,1.961,1.961,0,0,1,1.223.9,3.614,3.614,0,0,1,.467,1.7Z" fill="#039"/>
      <path id="Path_71" data-name="Path 71" d="M175.173,18.622a4.413,4.413,0,0,1-.806,2.857,2.9,2.9,0,0,1-2.383.988,3.451,3.451,0,0,1-1.406-.273,2.831,2.831,0,0,1-1.056-.8,3.7,3.7,0,0,1-.667-1.31,6.4,6.4,0,0,1-.229-1.8,5.866,5.866,0,0,1,.222-1.707,3.258,3.258,0,0,1,.644-1.215,2.609,2.609,0,0,1,1.035-.728,3.755,3.755,0,0,1,1.392-.244,2.052,2.052,0,0,1,.612.091,2.591,2.591,0,0,1,.547.24,2.5,2.5,0,0,1,.464.347,2.541,2.541,0,0,1,.362.422v-2.8a2.937,2.937,0,0,0-.065-.678,1.034,1.034,0,0,0-.185-.417.618.618,0,0,0-.314-.211,1.508,1.508,0,0,0-.444-.058,1.658,1.658,0,0,0-.5.066.617.617,0,0,0-.323.24,1.176,1.176,0,0,0-.181.467c-.037.2-.1,1.2-.1,1.2h-1.047s-.082-1.016-.1-1.212a1.292,1.292,0,0,0-.114-.463.469.469,0,0,0-.261-.231,1.432,1.432,0,0,0-.462-.062,1.188,1.188,0,0,0-.344.041.373.373,0,0,0-.2.145.632.632,0,0,0-.1.277,3.08,3.08,0,0,0-.023.43H168.1a2.852,2.852,0,0,1,.123-.872,2,2,0,0,1,.338-.654,1.452,1.452,0,0,1,.507-.409,1.431,1.431,0,0,1,.627-.14,1.586,1.586,0,0,1,.976.289,1.918,1.918,0,0,1,.619.9,1.71,1.71,0,0,1,1.612-1.19,2.327,2.327,0,0,1,.979.194,1.89,1.89,0,0,1,.711.554,2.5,2.5,0,0,1,.433.868,4.02,4.02,0,0,1,.146,1.129Zm-1.316-.008a7.263,7.263,0,0,0-.136-1.55,2.581,2.581,0,0,0-.384-.943,1.289,1.289,0,0,0-.608-.471,2.37,2.37,0,0,0-.81-.128,1.663,1.663,0,0,0-1.425.661,3.577,3.577,0,0,0-.487,2.1,4.11,4.11,0,0,0,.5,2.241,1.655,1.655,0,0,0,1.481.752,1.589,1.589,0,0,0,1.4-.678,3.469,3.469,0,0,0,.47-1.984" fill="#039"/>
      <path id="Path_72" data-name="Path 72" d="M183.564,18.043a5.431,5.431,0,0,1-.6,2.617,5.345,5.345,0,0,1-1.719,1.881l-.309-1.224a2.775,2.775,0,0,0,.918-1.215,5.379,5.379,0,0,0,.336-2.059,5.829,5.829,0,0,0-.143-1.364,3.09,3.09,0,0,0-.408-1,1.838,1.838,0,0,0-.651-.611,1.754,1.754,0,0,0-.861-.211,1.56,1.56,0,0,0-1.436.8,4.637,4.637,0,0,0-.478,2.34,5.959,5.959,0,0,0,.315,2.1,2.712,2.712,0,0,0,.908,1.26l-.318,1.208a6,6,0,0,1-1.717-1.96,5.469,5.469,0,0,1-.584-2.6,6.92,6.92,0,0,1,.226-1.856,3.879,3.879,0,0,1,.651-1.352,2.748,2.748,0,0,1,1.036-.827,3.291,3.291,0,0,1,1.389-.281,3.543,3.543,0,0,1,1.412.289,2.9,2.9,0,0,1,1.088.835,3.946,3.946,0,0,1,.7,1.364,6.446,6.446,0,0,1,.247,1.869" fill="#039"/>
      <path id="Path_73" data-name="Path 73" d="M196.24,17.96a6.7,6.7,0,0,1-.187,1.649,3.664,3.664,0,0,1-1.622,2.262,5.7,5.7,0,0,1-1.509.661v-1.2a2.53,2.53,0,0,0,1.488-1.182,4.6,4.6,0,0,0,.449-2.191,8.579,8.579,0,0,0-.06-1.038,2.7,2.7,0,0,0-.246-.872,1.48,1.48,0,0,0-.528-.6,1.624,1.624,0,0,0-.9-.224,2.2,2.2,0,0,0-.809.133,1.212,1.212,0,0,0-.545.421,1.99,1.99,0,0,0-.309.749,5.323,5.323,0,0,0-.1,1.12V19.06H190.1l-.1-1.414c-.006-.419-.025-.781-.06-1.087a1.945,1.945,0,0,0-.223-.757,1.011,1.011,0,0,0-.508-.438,2.4,2.4,0,0,0-.908-.141,2.085,2.085,0,0,0-.977.2,1.32,1.32,0,0,0-.558.554,2.372,2.372,0,0,0-.254.864,9.348,9.348,0,0,0-.061,1.124,4.157,4.157,0,0,0,.5,2.137,2.914,2.914,0,0,0,1.544,1.236V22.54a6.026,6.026,0,0,1-1.52-.706,4.114,4.114,0,0,1-1.051-.993,3.886,3.886,0,0,1-.607-1.285,6.1,6.1,0,0,1-.195-1.6,6.93,6.93,0,0,1,.215-1.8,5.874,5.874,0,0,1,.583-1.435,5.686,5.686,0,0,1,.861-1.137,8.492,8.492,0,0,1,1.043-.9,11.975,11.975,0,0,1,1.14-.732c.391-.22.773-.429,1.142-.628s.723-.393,1.056-.583a5.462,5.462,0,0,0,.873-.607l.54.942q-.6.379-1.04.628t-.766.426c-.22.119-.415.218-.587.3s-.344.157-.516.231l-.544.236c-.19.083-.412.187-.666.314a3.372,3.372,0,0,0-.369.215,6.077,6.077,0,0,0-.528.381,4.128,4.128,0,0,0-.48.442.641.641,0,0,0-.21.409l.071.066c.068-.071.146-.147.234-.227a1.783,1.783,0,0,1,.3-.219,1.858,1.858,0,0,1,.377-.166,1.579,1.579,0,0,1,.472-.066,2.874,2.874,0,0,1,.843.112,2.084,2.084,0,0,1,1.15.847,4.274,4.274,0,0,1,.389.72,3.4,3.4,0,0,1,.365-.691,2.221,2.221,0,0,1,1.178-.868,2.819,2.819,0,0,1,.854-.12,3.342,3.342,0,0,1,1.48.294,2.525,2.525,0,0,1,.969.814,3.42,3.42,0,0,1,.528,1.236,7.289,7.289,0,0,1,.158,1.567" fill="#039"/>
      <path id="Path_74" data-name="Path 74" d="M204.551,18.043a5.431,5.431,0,0,1-.6,2.617,5.345,5.345,0,0,1-1.719,1.881l-.309-1.224a2.775,2.775,0,0,0,.918-1.215,5.379,5.379,0,0,0,.336-2.059,5.829,5.829,0,0,0-.143-1.364,3.09,3.09,0,0,0-.408-1,1.838,1.838,0,0,0-.651-.611,1.754,1.754,0,0,0-.861-.211,1.56,1.56,0,0,0-1.436.8A4.637,4.637,0,0,0,199.2,18a5.959,5.959,0,0,0,.315,2.1,2.712,2.712,0,0,0,.908,1.26l-.318,1.208a6,6,0,0,1-1.717-1.96A5.469,5.469,0,0,1,197.8,18a6.92,6.92,0,0,1,.226-1.856,3.879,3.879,0,0,1,.651-1.352,2.748,2.748,0,0,1,1.036-.827,3.291,3.291,0,0,1,1.389-.281,3.543,3.543,0,0,1,1.412.289,2.9,2.9,0,0,1,1.088.835,3.946,3.946,0,0,1,.7,1.364,6.446,6.446,0,0,1,.247,1.869" fill="#039"/>
      <path id="Path_75" data-name="Path 75" d="M110,39.015a5.415,5.415,0,0,1-.226,1.641,3.172,3.172,0,0,1-.652,1.178,2.7,2.7,0,0,1-1.022.711,3.6,3.6,0,0,1-1.346.24,3.262,3.262,0,0,1-1.417-.293,2.768,2.768,0,0,1-1.036-.856,4,4,0,0,1-.639-1.381,7.292,7.292,0,0,1-.218-1.868l0-7.929h1.313l.007,7.937a4.42,4.42,0,0,0,.528,2.377,1.65,1.65,0,0,0,1.464.823,2.276,2.276,0,0,0,.937-.166,1.32,1.32,0,0,0,.575-.488,2.147,2.147,0,0,0,.293-.806,6.6,6.6,0,0,0,.084-1.12,2.741,2.741,0,0,0-.135-.926,2.491,2.491,0,0,0-.341-.645,3.7,3.7,0,0,0-.445-.492,5.252,5.252,0,0,1-.445-.463,2.229,2.229,0,0,1-.341-.554,1.94,1.94,0,0,1-.135-.773,3.544,3.544,0,0,1,.036-.446,1.913,1.913,0,0,1,.163-.55,1.758,1.758,0,0,1,.373-.521,1.5,1.5,0,0,1,.666-.36l.572.984a1.02,1.02,0,0,0-.294.174.757.757,0,0,0-.17.215.778.778,0,0,0-.079.24,1.376,1.376,0,0,0-.02.248,1.178,1.178,0,0,0,.146.616,2.253,2.253,0,0,0,.365.454c.146.141.3.281.469.422a2.846,2.846,0,0,1,.468.517,2.741,2.741,0,0,1,.361.748A3.651,3.651,0,0,1,110,39.015" fill="#039"/>
      <path id="Path_76" data-name="Path 76" d="M118.082,38.933a5.654,5.654,0,0,1-.2,1.538,3.538,3.538,0,0,1-.6,1.215,2.739,2.739,0,0,1-1,.8,3.279,3.279,0,0,1-1.424.29,3.781,3.781,0,0,1-1.409-.248,2.889,2.889,0,0,1-1.056-.711,3.083,3.083,0,0,1-.659-1.137,4.778,4.778,0,0,1-.226-1.517,1.918,1.918,0,0,1,.079-.509q.08-.285.187-.566c.037-.1.1-.265.1-.265H113.3c-.042.088-.087.19-.136.306s-.091.234-.13.356a2.89,2.89,0,0,0-.1.359,1.6,1.6,0,0,0-.036.31,2.861,2.861,0,0,0,.5,1.832,1.789,1.789,0,0,0,1.472.607,1.589,1.589,0,0,0,1.394-.649,3.6,3.6,0,0,0,.456-2.038,3.132,3.132,0,0,0-.108-.81,3.1,3.1,0,0,0-.305-.752,2.543,2.543,0,0,0-.48-.608,1.838,1.838,0,0,0-.624-.385,5.1,5.1,0,0,1-.836-.372,2.858,2.858,0,0,1-.668-.5,2.191,2.191,0,0,1-.44-.653,2,2,0,0,1-.158-.81h1.34a1.716,1.716,0,0,0,.068.537.773.773,0,0,0,.211.331,1.206,1.206,0,0,0,.36.223c.145.061.319.129.52.207a3.14,3.14,0,0,1,.95.583,4.745,4.745,0,0,1,1.332,1.955,3.169,3.169,0,0,1,.2,1.083" fill="#039"/>
      <path id="Path_77" data-name="Path 77" d="M126.137,42.447a6.169,6.169,0,0,1-.2,1.724,3.156,3.156,0,0,1-.619,1.215,2.537,2.537,0,0,1-1.016.72,3.775,3.775,0,0,1-1.381.235,3.418,3.418,0,0,1-1.31-.244,3.118,3.118,0,0,1-1.032-.678,3.336,3.336,0,0,1-.7-1.025,3.908,3.908,0,0,1-.318-1.269,6.671,6.671,0,0,1,.256-1.434h1.338s-.077.21-.113.355a4.643,4.643,0,0,0-.107,1.1,2.385,2.385,0,0,0,.143.851,1.884,1.884,0,0,0,.4.653,1.73,1.73,0,0,0,.632.418,2.215,2.215,0,0,0,.813.144,2.14,2.14,0,0,0,.83-.148,1.311,1.311,0,0,0,.578-.48,2.352,2.352,0,0,0,.338-.851,6.058,6.058,0,0,0,.111-1.257V37.205a2,2,0,0,0-.19-.9,2.049,2.049,0,0,0-.484-.633,1.955,1.955,0,0,0-.651-.372,2.182,2.182,0,0,0-.683-.12,1.349,1.349,0,0,0-.612.133,1.311,1.311,0,0,0-.44.359,1.6,1.6,0,0,0-.269.53,2.158,2.158,0,0,0-.091.64,3.692,3.692,0,0,0,.1.571,1.66,1.66,0,0,0,.2.463,1.4,1.4,0,0,0,.333.359,1.88,1.88,0,0,0,.5.261l-.285,1.166a4.1,4.1,0,0,1-.952-.422,2.422,2.422,0,0,1-.656-.587,2.482,2.482,0,0,1-.392-.785,4.121,4.121,0,0,1-.16-1.017,4.625,4.625,0,0,1,.219-1.183,2.518,2.518,0,0,1,.511-.9,2.221,2.221,0,0,1,.831-.566,3.142,3.142,0,0,1,1.17-.2,2.369,2.369,0,0,1,1.131.273,2.732,2.732,0,0,1,.9.794c0-.4-.011-.762-.016-1.1s0-3.12,0-3.517h1.225Z" fill="#039"/>
      <path id="Path_78" data-name="Path 78" d="M134.283,38.933a5.654,5.654,0,0,1-.2,1.538,3.538,3.538,0,0,1-.6,1.215,2.739,2.739,0,0,1-1,.8,3.279,3.279,0,0,1-1.424.29,3.781,3.781,0,0,1-1.409-.248,2.889,2.889,0,0,1-1.056-.711,3.083,3.083,0,0,1-.659-1.137,4.778,4.778,0,0,1-.226-1.517,1.918,1.918,0,0,1,.079-.509q.08-.285.187-.566c.04-.1.1-.265.1-.265H129.5c-.042.088-.087.19-.136.306s-.091.234-.13.356a2.887,2.887,0,0,0-.1.359,1.6,1.6,0,0,0-.036.31,2.861,2.861,0,0,0,.5,1.832,1.789,1.789,0,0,0,1.472.607,1.589,1.589,0,0,0,1.394-.649,3.6,3.6,0,0,0,.456-2.038,3.132,3.132,0,0,0-.108-.81,3.1,3.1,0,0,0-.3-.752,2.543,2.543,0,0,0-.48-.608,1.838,1.838,0,0,0-.624-.385,5.1,5.1,0,0,1-.836-.372,2.858,2.858,0,0,1-.668-.5,2.191,2.191,0,0,1-.44-.653,2,2,0,0,1-.158-.81h1.34a1.716,1.716,0,0,0,.068.537.773.773,0,0,0,.211.331,1.206,1.206,0,0,0,.36.223c.145.061.319.129.52.207a3.14,3.14,0,0,1,.95.583,4.745,4.745,0,0,1,1.332,1.955,3.169,3.169,0,0,1,.2,1.083" fill="#039"/>
      <path id="Path_79" data-name="Path 79" d="M146.966,38.279a6.691,6.691,0,0,1-.187,1.649,3.67,3.67,0,0,1-1.622,2.263,5.7,5.7,0,0,1-1.509.66v-1.2a2.531,2.531,0,0,0,1.488-1.183,4.594,4.594,0,0,0,.449-2.191,8.562,8.562,0,0,0-.06-1.037,2.714,2.714,0,0,0-.246-.873,1.484,1.484,0,0,0-.528-.6,1.624,1.624,0,0,0-.9-.225,2.216,2.216,0,0,0-.809.133,1.219,1.219,0,0,0-.545.422,1.99,1.99,0,0,0-.309.749,5.318,5.318,0,0,0-.1,1.119v1.414h-1.253l-.1-1.414c-.006-.418-.025-.78-.06-1.086a1.944,1.944,0,0,0-.223-.757,1.011,1.011,0,0,0-.508-.438,2.4,2.4,0,0,0-.908-.142,2.1,2.1,0,0,0-.977.195,1.328,1.328,0,0,0-.558.555,2.366,2.366,0,0,0-.254.864,9.342,9.342,0,0,0-.061,1.123,4.158,4.158,0,0,0,.5,2.138,2.919,2.919,0,0,0,1.544,1.236v1.206a5.957,5.957,0,0,1-1.52-.706,4.114,4.114,0,0,1-1.051-.993,3.877,3.877,0,0,1-.607-1.285,6.09,6.09,0,0,1-.195-1.6,6.922,6.922,0,0,1,.215-1.8,5.874,5.874,0,0,1,.583-1.435,5.658,5.658,0,0,1,.861-1.137,8.5,8.5,0,0,1,1.043-.9,12.165,12.165,0,0,1,1.14-.731c.391-.221.773-.43,1.142-.628s.723-.393,1.056-.583a5.465,5.465,0,0,0,.873-.608l.54.943c-.4.252-.749.463-1.04.627s-.546.309-.766.427-.415.218-.587.3-.344.157-.516.231l-.544.236c-.19.083-.412.187-.666.314a3.372,3.372,0,0,0-.369.215,6.077,6.077,0,0,0-.528.381,4.042,4.042,0,0,0-.48.442.639.639,0,0,0-.21.408l.071.067q.1-.106.234-.228a1.836,1.836,0,0,1,.3-.218,1.8,1.8,0,0,1,.377-.166,1.547,1.547,0,0,1,.472-.067,2.907,2.907,0,0,1,.843.112,2.1,2.1,0,0,1,1.15.847,4.326,4.326,0,0,1,.389.721,3.352,3.352,0,0,1,.365-.691,2.208,2.208,0,0,1,1.178-.868,2.818,2.818,0,0,1,.854-.121,3.328,3.328,0,0,1,1.48.295,2.525,2.525,0,0,1,.969.814,3.412,3.412,0,0,1,.528,1.236,7.287,7.287,0,0,1,.158,1.566" fill="#039"/>
      <path id="Path_80" data-name="Path 80" d="M154.99,38.263a7.851,7.851,0,0,1-.2,1.86,4.243,4.243,0,0,1-.607,1.426,2.737,2.737,0,0,1-2.381,1.236,2.874,2.874,0,0,1-1.384-.322,2.8,2.8,0,0,1-1-.918,4.389,4.389,0,0,1-.612-1.43,7.833,7.833,0,0,1-.207-1.869,6.775,6.775,0,0,1,.227-1.852,3.713,3.713,0,0,1,.654-1.327,2.692,2.692,0,0,1,1.041-.8,3.469,3.469,0,0,1,1.389-.264,2.827,2.827,0,0,1,1.281.268,3.36,3.36,0,0,1,.989.773,3.088,3.088,0,0,1,.412-.384,3.224,3.224,0,0,1,.476-.306,2.741,2.741,0,0,1,.5-.2,1.763,1.763,0,0,1,.491-.074,3.064,3.064,0,0,1,1.31.277,2.791,2.791,0,0,1,1.024.823,3.96,3.96,0,0,1,.666,1.356,6.622,6.622,0,0,1,.239,1.876,7,7,0,0,1-.151,1.48,4.463,4.463,0,0,1-.484,1.278,3.953,3.953,0,0,1-.861,1.037,4.568,4.568,0,0,1-1.29.761l-.476-1.207A3.13,3.13,0,0,0,157,41.2a2.4,2.4,0,0,0,.572-.753,3.122,3.122,0,0,0,.27-.93,8.415,8.415,0,0,0,.067-1.1,8.713,8.713,0,0,0-.092-1.327,3.557,3.557,0,0,0-.3-1.025,1.6,1.6,0,0,0-.556-.657,1.517,1.517,0,0,0-.857-.232.991.991,0,0,0-.424.1,1.61,1.61,0,0,0-.373.244,2.533,2.533,0,0,0-.318.335q-.147.186-.266.368a5.016,5.016,0,0,1,.207.972,10.062,10.062,0,0,1,.055,1.079m-1.365-.017c0-.4-.017-.78-.047-1.149a3.258,3.258,0,0,0-.227-.98,1.616,1.616,0,0,0-.52-.682,1.512,1.512,0,0,0-.928-.256,1.609,1.609,0,0,0-1.449.74,4.381,4.381,0,0,0-.48,2.327,8.478,8.478,0,0,0,.1,1.389,3.565,3.565,0,0,0,.326,1.054,1.745,1.745,0,0,0,.567.67,1.562,1.562,0,0,0,1.651,0,1.754,1.754,0,0,0,.567-.67,3.653,3.653,0,0,0,.33-1.054,8.136,8.136,0,0,0,.107-1.389" fill="#039"/>
      <path id="Path_81" data-name="Path 81" d="M167.34,43.422a2.976,2.976,0,0,1-.234,1.2,2.7,2.7,0,0,1-.655.922,2.946,2.946,0,0,1-1.016.6,3.912,3.912,0,0,1-1.317.211,3.394,3.394,0,0,1-1.409-.277,3.245,3.245,0,0,1-1.041-.728,3.091,3.091,0,0,1-.642-1.017,3.167,3.167,0,0,1-.219-1.153,3.542,3.542,0,0,1,.14-.93c.05-.188.19-.554.19-.554h1.157a3.019,3.019,0,0,0-.2.67,4.655,4.655,0,0,0-.067.806,2.012,2.012,0,0,0,.143.731,2.039,2.039,0,0,0,1.059,1.129,2.02,2.02,0,0,0,.869.182,2.938,2.938,0,0,0,.8-.1,1.394,1.394,0,0,0,.587-.323,1.409,1.409,0,0,0,.362-.574,2.639,2.639,0,0,0,.123-.856l-.032-.918a6.369,6.369,0,0,0-.1-.9,1.85,1.85,0,0,0-.246-.653,1.08,1.08,0,0,0-.449-.4,1.644,1.644,0,0,0-.706-.132h-.7v-.968h.721a1.115,1.115,0,0,0,.58-.161,1.542,1.542,0,0,0,.473-.451,2.4,2.4,0,0,0,.321-.678,2.9,2.9,0,0,0,.119-.851q0-2.067-1.675-2.067a2.031,2.031,0,0,0-.706.116,1.446,1.446,0,0,0-.544.343,1.558,1.558,0,0,0-.349.558,2.148,2.148,0,0,0-.124.76,1.565,1.565,0,0,0,.108.492,3.24,3.24,0,0,0,.337.658l-.857.62a2.751,2.751,0,0,1-.686-.852,1.978,1.978,0,0,1-.227-.893,3.267,3.267,0,0,1,.21-1.174,2.727,2.727,0,0,1,.6-.942,2.759,2.759,0,0,1,.949-.625,3.659,3.659,0,0,1,2.551,0,2.665,2.665,0,0,1,.965.653,2.867,2.867,0,0,1,.6,1.017,3.955,3.955,0,0,1,.21,1.331,2.487,2.487,0,0,1-.129.827,2.578,2.578,0,0,1-.362.682,3.332,3.332,0,0,1-.54.57,7.013,7.013,0,0,1-.659.492,1.961,1.961,0,0,1,1.223.9,3.614,3.614,0,0,1,.467,1.7Z" fill="#039"/>
      <path id="Path_82" data-name="Path 82" d="M175.437,42.835a4.4,4.4,0,0,1-.219,1.422,3.19,3.19,0,0,1-.627,1.108,2.762,2.762,0,0,1-1,.719,3.4,3.4,0,0,1-1.357.257,3.645,3.645,0,0,1-1.389-.253,3.342,3.342,0,0,1-1.056-.669,2.92,2.92,0,0,1-.669-.959,2.783,2.783,0,0,1-.235-1.129c0-.132.005-.3.016-.5a4.652,4.652,0,0,1,.083-.649c.033-.169.128-.488.128-.488h1.207s-.055.127-.081.215a2.885,2.885,0,0,0-.1.525,4.668,4.668,0,0,0-.028.5v.385a1.987,1.987,0,0,0,.159.818,1.617,1.617,0,0,0,.441.591,1.912,1.912,0,0,0,.67.356,2.934,2.934,0,0,0,.857.12,1.693,1.693,0,0,0,.814-.186,1.672,1.672,0,0,0,.575-.509,2.247,2.247,0,0,0,.342-.761,3.789,3.789,0,0,0,.111-.934V37.552a4.607,4.607,0,0,0-.115-1.116,1.872,1.872,0,0,0-.341-.732,1.3,1.3,0,0,0-.56-.4,2.167,2.167,0,0,0-.762-.124,1.564,1.564,0,0,0-.671.14,1.447,1.447,0,0,0-.5.393,1.735,1.735,0,0,0-.313.612,2.738,2.738,0,0,0-.108.79,2.859,2.859,0,0,0,.036.5,1.214,1.214,0,0,0,.131.368,1.779,1.779,0,0,0,.262.343c.111.115.252.256.421.421l-.374,1.067c-.343-.2-.632-.389-.864-.554a2.5,2.5,0,0,1-.568-.542,1.852,1.852,0,0,1-.313-.678,4.008,4.008,0,0,1-.1-.954,3.324,3.324,0,0,1,.2-1.15,3.054,3.054,0,0,1,.584-.984,2.82,2.82,0,0,1,.928-.686,2.882,2.882,0,0,1,1.238-.256,2.916,2.916,0,0,1,2.322.9,3.989,3.989,0,0,1,.8,2.65Z" fill="#039"/>
      <path id="Path_83" data-name="Path 83" d="M188.984,34.179a2.391,2.391,0,0,1,1.2.306,3.01,3.01,0,0,1,.937.831,4.058,4.058,0,0,1,.611,1.224,4.929,4.929,0,0,1,.218,1.475,7.2,7.2,0,0,1-.166,1.625,3.68,3.68,0,0,1-1.512,2.257,6.38,6.38,0,0,1-1.465.748v-1.3a2.422,2.422,0,0,0,.865-.45,2.257,2.257,0,0,0,.56-.711,3.281,3.281,0,0,0,.3-.955,7.432,7.432,0,0,0,.088-1.183,3.92,3.92,0,0,0-.417-1.988,1.331,1.331,0,0,0-1.211-.7,1.57,1.57,0,0,0-.893.224,1.44,1.44,0,0,0-.508.616,2.874,2.874,0,0,0-.23.917c-.034.35-.051.727-.051,1.129v1.3H186.1l-.056-1.29q-.039-.786-.107-1.364a3.628,3.628,0,0,0-.226-.959,1.194,1.194,0,0,0-.448-.567,1.4,1.4,0,0,0-.766-.186,1.32,1.32,0,0,0-.746.186,1.2,1.2,0,0,0-.433.571,3.321,3.321,0,0,0-.2.963c-.03.386-.047.841-.047,1.364v1.282h-1.23l-.055-1.29c-.021-.435-.05-.831-.084-1.186a2.814,2.814,0,0,0-.227-.914,1.282,1.282,0,0,0-.523-.587,1.9,1.9,0,0,0-.969-.207,1.582,1.582,0,0,0-.785.178,1.323,1.323,0,0,0-.508.517,2.509,2.509,0,0,0-.27.839,7.428,7.428,0,0,0-.079,1.153,4.605,4.605,0,0,0,.326,1.749,5.166,5.166,0,0,0,.923,1.488,7.01,7.01,0,0,0,1.453,1.236,11.912,11.912,0,0,0,1.909.993q.675.281,1.3.512c.418.154.831.3,1.235.43s.807.255,1.207.368.805.222,1.217.327l-.039,1.19c-.507-.11-.985-.226-1.429-.347s-.878-.249-1.3-.385-.841-.275-1.255-.421-.841-.3-1.285-.459a3.764,3.764,0,0,0-1.908-.186,2.673,2.673,0,0,0-.727.227,1.935,1.935,0,0,0-.508.347l-.524-.942a1.267,1.267,0,0,1,.4-.244,2.341,2.341,0,0,1,.479-.124c.167-.025.337-.041.508-.05s.341-.015.5-.02a6.284,6.284,0,0,1-1.611-1.042,7.092,7.092,0,0,1-1.215-1.4,6.545,6.545,0,0,1-.766-1.6,5.412,5.412,0,0,1-.266-1.646,6.758,6.758,0,0,1,.178-1.612,3.433,3.433,0,0,1,.549-1.219,2.434,2.434,0,0,1,.936-.769,3.138,3.138,0,0,1,1.354-.269,3.259,3.259,0,0,1,.844.1,2.089,2.089,0,0,1,.652.294,1.928,1.928,0,0,1,.483.479,3.2,3.2,0,0,1,.354.658,4.222,4.222,0,0,1,.31-.72,1.943,1.943,0,0,1,.428-.533,1.77,1.77,0,0,1,.6-.335,3.1,3.1,0,0,1,1.679,0,1.748,1.748,0,0,1,.611.339,2.1,2.1,0,0,1,.441.538,4.707,4.707,0,0,1,.333.711,2.379,2.379,0,0,1,.858-1.154,2.445,2.445,0,0,1,1.4-.376" fill="#039"/>
      <path id="Path_84" data-name="Path 84" d="M204.828,38.23a6.878,6.878,0,0,1-.187,1.674,3.9,3.9,0,0,1-.59,1.311,3.747,3.747,0,0,1-1.032.975,5.737,5.737,0,0,1-1.509.662V41.579A2.267,2.267,0,0,0,203,40.466a4.721,4.721,0,0,0,.449-2.236,7.2,7.2,0,0,0-.1-1.286,3.2,3.2,0,0,0-.317-.959,1.572,1.572,0,0,0-.548-.6,1.489,1.489,0,0,0-.8-.207,1.455,1.455,0,0,0-1.361.711,4.227,4.227,0,0,0-.417,2.1v1.389h-1.254V37.99A4.021,4.021,0,0,0,198.2,35.9a1.521,1.521,0,0,0-1.4-.724,1.45,1.45,0,0,0-.793.207,1.506,1.506,0,0,0-.528.6,3.188,3.188,0,0,0-.293.959,8,8,0,0,0-.092,1.286,5.525,5.525,0,0,0,.115,1.149,3.5,3.5,0,0,0,.357.972,2.79,2.79,0,0,0,.619.756,2.647,2.647,0,0,0,.9.5V42.86a5.723,5.723,0,0,1-1.535-.686,3.859,3.859,0,0,1-1.048-1,3.985,3.985,0,0,1-.6-1.314,6.55,6.55,0,0,1-.19-1.629,6.823,6.823,0,0,1,.215-1.794,3.962,3.962,0,0,1,.614-1.327,2.649,2.649,0,0,1,.98-.823,2.992,2.992,0,0,1,1.319-.281,2.923,2.923,0,0,1,.852.112,2.055,2.055,0,0,1,.656.33,2.22,2.22,0,0,1,.5.542,4.415,4.415,0,0,1,.389.736,4.5,4.5,0,0,1,.393-.728,2.243,2.243,0,0,1,.512-.541,2.177,2.177,0,0,1,.671-.335,2.9,2.9,0,0,1,.861-.116,2.7,2.7,0,0,1,1.393.347,3.033,3.033,0,0,1,.984.93,4.222,4.222,0,0,1,.584,1.348,6.646,6.646,0,0,1,.19,1.6" fill="#039"/>
      <path id="Path_85" data-name="Path 85" d="M213.043,39.015a5.415,5.415,0,0,1-.226,1.641,3.172,3.172,0,0,1-.652,1.178,2.7,2.7,0,0,1-1.022.711,3.6,3.6,0,0,1-1.346.24,3.262,3.262,0,0,1-1.417-.293,2.768,2.768,0,0,1-1.036-.856,4,4,0,0,1-.639-1.381,7.292,7.292,0,0,1-.218-1.868V30.458h1.329L207.8,38.4a4.42,4.42,0,0,0,.528,2.377,1.65,1.65,0,0,0,1.464.823,2.276,2.276,0,0,0,.937-.166,1.32,1.32,0,0,0,.575-.488,2.13,2.13,0,0,0,.293-.806,6.6,6.6,0,0,0,.084-1.12,2.74,2.74,0,0,0-.135-.926,2.491,2.491,0,0,0-.341-.645,3.7,3.7,0,0,0-.445-.492,5.251,5.251,0,0,1-.445-.463,2.229,2.229,0,0,1-.341-.554,1.94,1.94,0,0,1-.135-.773,3.543,3.543,0,0,1,.036-.446,1.913,1.913,0,0,1,.163-.55,1.758,1.758,0,0,1,.373-.521,1.5,1.5,0,0,1,.666-.36l.572.984a1.02,1.02,0,0,0-.294.174.757.757,0,0,0-.17.215.778.778,0,0,0-.079.24,1.376,1.376,0,0,0-.02.248,1.178,1.178,0,0,0,.146.616,2.253,2.253,0,0,0,.365.454c.146.141.3.281.469.422a2.846,2.846,0,0,1,.468.517,2.741,2.741,0,0,1,.361.748,3.651,3.651,0,0,1,.143,1.112" fill="#039"/>
      <path id="Path_86" data-name="Path 86" d="M221.012,38.263a7.851,7.851,0,0,1-.2,1.86,4.243,4.243,0,0,1-.607,1.426,2.737,2.737,0,0,1-2.381,1.236,2.874,2.874,0,0,1-1.384-.322,2.8,2.8,0,0,1-1-.918,4.389,4.389,0,0,1-.612-1.43,7.833,7.833,0,0,1-.207-1.869,6.775,6.775,0,0,1,.227-1.852,3.713,3.713,0,0,1,.654-1.327,2.692,2.692,0,0,1,1.041-.8,3.469,3.469,0,0,1,1.389-.264,2.827,2.827,0,0,1,1.281.268,3.359,3.359,0,0,1,.989.773,3.088,3.088,0,0,1,.412-.384,3.225,3.225,0,0,1,.476-.306,2.741,2.741,0,0,1,.5-.2,1.763,1.763,0,0,1,.491-.074,3.064,3.064,0,0,1,1.31.277,2.782,2.782,0,0,1,1.024.823,3.96,3.96,0,0,1,.666,1.356,6.622,6.622,0,0,1,.239,1.876,7,7,0,0,1-.151,1.48,4.433,4.433,0,0,1-.484,1.278,3.953,3.953,0,0,1-.861,1.037,4.567,4.567,0,0,1-1.29.761l-.476-1.207a3.13,3.13,0,0,0,.972-.562,2.4,2.4,0,0,0,.572-.753,3.122,3.122,0,0,0,.27-.93,8.417,8.417,0,0,0,.067-1.1,8.713,8.713,0,0,0-.092-1.327,3.557,3.557,0,0,0-.3-1.025,1.6,1.6,0,0,0-.556-.657,1.517,1.517,0,0,0-.857-.232.991.991,0,0,0-.424.1,1.61,1.61,0,0,0-.373.244,2.533,2.533,0,0,0-.318.335q-.147.186-.266.368a5.016,5.016,0,0,1,.207.972,10.062,10.062,0,0,1,.055,1.079m-1.365-.017c0-.4-.017-.78-.047-1.149a3.258,3.258,0,0,0-.227-.98,1.616,1.616,0,0,0-.52-.682,1.512,1.512,0,0,0-.928-.256,1.609,1.609,0,0,0-1.449.74,4.381,4.381,0,0,0-.48,2.327,8.478,8.478,0,0,0,.1,1.389,3.565,3.565,0,0,0,.326,1.054,1.754,1.754,0,0,0,.567.67,1.562,1.562,0,0,0,1.651,0,1.754,1.754,0,0,0,.567-.67,3.653,3.653,0,0,0,.33-1.054,8.134,8.134,0,0,0,.107-1.389" fill="#039"/>
      <path id="Path_87" data-name="Path 87" d="M233.362,43.422a2.976,2.976,0,0,1-.234,1.2,2.7,2.7,0,0,1-.655.922,2.946,2.946,0,0,1-1.016.6,3.912,3.912,0,0,1-1.317.211,3.394,3.394,0,0,1-1.409-.277,3.245,3.245,0,0,1-1.041-.728,3.091,3.091,0,0,1-.642-1.017,3.167,3.167,0,0,1-.219-1.153,3.543,3.543,0,0,1,.14-.93c.053-.2.188-.554.188-.554h1.155a3.029,3.029,0,0,0-.193.67,4.655,4.655,0,0,0-.067.806,2.012,2.012,0,0,0,.143.731,2.039,2.039,0,0,0,1.059,1.129,2.02,2.02,0,0,0,.869.182,2.938,2.938,0,0,0,.8-.1,1.394,1.394,0,0,0,.587-.323,1.409,1.409,0,0,0,.362-.574,2.639,2.639,0,0,0,.123-.856l-.032-.918a6.369,6.369,0,0,0-.1-.9,1.85,1.85,0,0,0-.246-.653,1.08,1.08,0,0,0-.449-.4,1.644,1.644,0,0,0-.706-.132h-.7v-.968h.721a1.115,1.115,0,0,0,.58-.161,1.541,1.541,0,0,0,.473-.451,2.4,2.4,0,0,0,.321-.678,2.9,2.9,0,0,0,.119-.851q0-2.067-1.675-2.067a2.031,2.031,0,0,0-.706.116,1.446,1.446,0,0,0-.544.343,1.558,1.558,0,0,0-.349.558,2.148,2.148,0,0,0-.124.76,1.565,1.565,0,0,0,.108.492,3.241,3.241,0,0,0,.337.658l-.857.62a2.751,2.751,0,0,1-.686-.852,1.978,1.978,0,0,1-.227-.893,3.266,3.266,0,0,1,.21-1.174,2.727,2.727,0,0,1,.6-.942,2.759,2.759,0,0,1,.949-.625,3.659,3.659,0,0,1,2.551,0,2.664,2.664,0,0,1,.965.653,2.867,2.867,0,0,1,.6,1.017,3.955,3.955,0,0,1,.21,1.331,2.487,2.487,0,0,1-.129.827,2.578,2.578,0,0,1-.362.682,3.331,3.331,0,0,1-.54.57,7.011,7.011,0,0,1-.659.492,1.961,1.961,0,0,1,1.223.9,3.614,3.614,0,0,1,.467,1.7Z" fill="#039"/>
      <path id="Path_88" data-name="Path 88" d="M241.7,38.362a5.431,5.431,0,0,1-.6,2.617,5.345,5.345,0,0,1-1.719,1.881l-.309-1.224a2.775,2.775,0,0,0,.918-1.215,5.379,5.379,0,0,0,.336-2.059A5.829,5.829,0,0,0,240.18,37a3.09,3.09,0,0,0-.408-1,1.838,1.838,0,0,0-.651-.611,1.754,1.754,0,0,0-.861-.211,1.56,1.56,0,0,0-1.436.8,4.636,4.636,0,0,0-.478,2.34,5.959,5.959,0,0,0,.315,2.1,2.712,2.712,0,0,0,.908,1.26l-.318,1.208a6,6,0,0,1-1.717-1.96,5.469,5.469,0,0,1-.584-2.6,6.92,6.92,0,0,1,.226-1.856,3.879,3.879,0,0,1,.651-1.352,2.748,2.748,0,0,1,1.036-.827,3.291,3.291,0,0,1,1.389-.281,3.543,3.543,0,0,1,1.412.289,2.9,2.9,0,0,1,1.088.835,3.946,3.946,0,0,1,.7,1.364,6.446,6.446,0,0,1,.247,1.869" fill="#039"/>
      <path id="Path_89" data-name="Path 89" d="M249.84,39.015a5.414,5.414,0,0,1-.226,1.641,3.172,3.172,0,0,1-.652,1.178,2.7,2.7,0,0,1-1.022.711,3.6,3.6,0,0,1-1.346.24,3.262,3.262,0,0,1-1.417-.293,2.768,2.768,0,0,1-1.036-.856,4,4,0,0,1-.639-1.381,7.292,7.292,0,0,1-.218-1.868V30.458H244.6V38.4a4.42,4.42,0,0,0,.528,2.377,1.65,1.65,0,0,0,1.464.823,2.276,2.276,0,0,0,.937-.166,1.32,1.32,0,0,0,.575-.488,2.13,2.13,0,0,0,.293-.806,6.6,6.6,0,0,0,.084-1.12,2.741,2.741,0,0,0-.135-.926,2.491,2.491,0,0,0-.341-.645,3.7,3.7,0,0,0-.445-.492,5.251,5.251,0,0,1-.445-.463,2.229,2.229,0,0,1-.341-.554,1.94,1.94,0,0,1-.135-.773,3.543,3.543,0,0,1,.036-.446,1.913,1.913,0,0,1,.163-.55,1.758,1.758,0,0,1,.373-.521,1.5,1.5,0,0,1,.666-.36l.572.984a1.02,1.02,0,0,0-.294.174.757.757,0,0,0-.17.215.778.778,0,0,0-.079.24,1.376,1.376,0,0,0-.02.248,1.178,1.178,0,0,0,.146.616,2.253,2.253,0,0,0,.365.454c.146.141.3.281.469.422a2.846,2.846,0,0,1,.468.517,2.741,2.741,0,0,1,.361.748,3.651,3.651,0,0,1,.143,1.112" fill="#039"/>
    </g>
  </g>
</svg>
